<svg xmlns="http://www.w3.org/2000/svg" viewBox="0 0 32 32" width="32" height="32">
  <rect width="32" height="32" rx="6" fill="#0056D2"/>
  <path d="M16 6C10.48 6 6 10.48 6 16s4.48 10 10 10 10-4.48 10-10S21.52 6 16 6zm0 3.5a6.5 6.5 0 0 1 5.62 3.24l-2.32 1.38A3.75 3.75 0 0 0 16 12.25a3.75 3.75 0 0 0-3.75 3.75A3.75 3.75 0 0 0 16 19.75a3.75 3.75 0 0 0 3.28-1.93l2.32 1.38A6.5 6.5 0 0 1 16 22.5a6.5 6.5 0 0 1-6.5-6.5A6.5 6.5 0 0 1 16 9.5zm8 10.5a1.5 1.5 0 1 1 0 3 1.5 1.5 0 0 1 0-3z" fill="white"/>
</svg>